<?xml version="1.0" standalone="no"?>
<!DOCTYPE svg PUBLIC "-//W3C//DTD SVG 20010904//EN"
 "http://www.w3.org/TR/2001/REC-SVG-20010904/DTD/svg10.dtd">
<svg version="1.0" xmlns="http://www.w3.org/2000/svg"
 width="192.000000pt" height="192.000000pt" viewBox="0 0 192.000000 192.000000"
 preserveAspectRatio="xMidYMid meet">
<metadata>
Created by potrace 1.11, written by Peter Selinger 2001-2013
</metadata>
<g transform="translate(0.000000,192.000000) scale(0.100000,-0.100000)"
fill="#000000" stroke="none">
<path d="M802 1872 l-34 -3 7 -62 c4 -34 9 -66 12 -70 3 -4 28 -5 56 -1 29 4
58 7 65 7 11 0 12 14 7 61 -4 34 -9 64 -12 69 -4 7 -17 7 -101 -1z"/>
<path d="M986 1855 c-19 -12 -37 -37 -45 -62 -13 -35 -13 -46 0 -79 18 -46 69
-84 114 -84 38 0 95 36 112 70 56 111 -77 225 -181 155z"/>
<path d="M692 1847 c-32 -10 -33 -12 -27 -46 9 -50 10 -50 56 -38 39 9 41 11
35 41 -9 45 -24 55 -64 43z"/>
<path d="M1219 1775 c-28 -59 -23 -87 12 -78 12 3 24 1 28 -4 11 -19 108 -71
118 -64 18 11 62 107 55 118 -6 9 -106 53 -120 53 -2 0 0 -5 4 -11 4 -7 1 -10
-7 -7 -8 2 -18 14 -24 26 -16 37 -39 26 -66 -33z"/>
<path d="M601 1806 c-9 -11 -10 -20 -2 -35 17 -31 14 -32 -24 -10 -28 17 -38
19 -50 9 -10 -9 -12 -17 -5 -30 9 -17 7 -17 -20 -7 -22 9 -33 8 -42 -1 -9 -9
-2 -20 30 -50 23 -22 42 -46 42 -55 0 -16 4 -19 32 -21 6 -1 17 15 23 34 l12
35 13 -42 c25 -82 72 -37 63 59 -4 52 -6 58 -23 92 -19 36 -33 42 -49 22z"/>
<path d="M714 1708 c2 -47 66 -59 66 -13 0 19 -4 22 -22 17 -14 -3 -19 -2 -14
6 4 8 0 12 -12 12 -13 0 -18 -7 -18 -22z"/>
<path d="M1468 1702 c9 -10 19 -14 21 -9 2 5 -3 13 -10 18 -24 15 -30 10 -11
-9z"/>
<path d="M1455 1690 c3 -5 8 -10 11 -10 2 0 4 5 4 10 0 6 -5 10 -11 10 -5 0
-7 -4 -4 -10z"/>
<path d="M358 1662 c-9 -9 -15 -24 -15 -32 0 -8 -3 -25 -7 -37 -6 -18 -4 -21
16 -17 13 2 17 2 11 -2 -26 -12 -12 -22 30 -21 47 2 71 13 64 31 -2 6 -1 20 3
31 12 31 -7 57 -38 54 -15 -2 -32 0 -38 4 -6 3 -18 -1 -26 -11z"/>
<path d="M897 1659 c-4 -14 -11 -20 -21 -16 -21 8 -30 -11 -27 -58 3 -49 3
-48 42 -47 33 1 55 16 61 42 2 8 10 20 18 27 13 10 12 14 -7 33 -13 11 -23 25
-23 30 0 20 -38 10 -43 -11z"/>
<path d="M1464 1658 c-35 -17 -44 -28 -57 -72 l-17 -51 51 -47 50 -46 51 26
c45 24 54 33 69 77 l17 50 -46 43 c-25 23 -53 42 -62 41 -8 0 -33 -10 -56 -21z"/>
<path d="M1146 1649 c-20 -16 -26 -29 -26 -59 0 -21 -4 -50 -10 -64 -7 -20 -6
-24 5 -19 8 3 15 8 15 12 0 4 19 18 43 31 23 13 45 28 49 34 15 21 8 55 -14
70 -29 20 -30 20 -62 -5z"/>
<path d="M699 1642 c-6 -34 2 -94 13 -102 13 -10 85 2 86 13 1 7 3 30 4 52 l3
40 -52 2 c-29 1 -54 -2 -54 -5z"/>
<path d="M1259 1623 c-1 -5 0 -16 1 -26 1 -10 -4 -25 -10 -32 -10 -12 -9 -16
3 -21 9 -3 21 -3 28 1 8 6 8 2 0 -12 -10 -19 -6 -33 9 -33 20 0 70 64 70 89 0
19 -30 12 -31 -6 -1 -12 -4 -9 -8 7 -5 16 -13 24 -24 22 -9 -2 -17 2 -17 8 0
11 -19 14 -21 3z"/>
<path d="M1000 1603 c-34 -23 -40 -34 -30 -54 11 -20 62 -40 79 -30 18 12 22
69 5 86 -19 19 -24 19 -54 -2z"/>
<path d="M501 1577 c-13 -6 -31 -22 -39 -34 -13 -21 -13 -23 2 -23 9 0 32 7
52 15 31 13 34 17 24 35 -13 24 -9 23 -39 7z"/>
<path d="M550 1583 c0 -4 5 -22 12 -40 12 -32 28 -45 28 -21 0 6 3 9 6 6 3 -4
-2 -20 -10 -36 -9 -17 -13 -39 -10 -49 5 -15 4 -16 -5 -3 -6 8 -11 11 -11 7 0
-5 -15 0 -34 11 -25 15 -37 17 -45 9 -27 -27 3 -58 59 -59 57 -2 110 90 74
127 -8 7 -14 18 -14 23 0 5 -11 14 -25 20 -14 6 -25 9 -25 5z"/>
<path d="M646 1555 c-10 -7 -15 -18 -12 -23 9 -15 55 10 49 25 -6 16 -13 16
-37 -2z"/>
<path d="M191 1470 c-34 -51 -61 -97 -61 -102 0 -16 56 -64 96 -83 48 -23 56
-18 125 86 45 67 55 88 47 104 -12 27 -80 74 -117 81 -29 6 -32 2 -90 -86z"/>
<path d="M1634 1545 c-10 -26 3 -42 35 -43 36 -1 38 6 11 36 -24 26 -38 28
-46 7z"/>
<path d="M1140 1504 c-30 -19 -54 -42 -54 -50 3 -24 67 -124 80 -124 17 0 122
63 128 76 7 17 -66 134 -84 134 -8 0 -40 -16 -70 -36z"/>
<path d="M1055 1510 c-4 -6 -3 -14 0 -20 9 -15 35 -12 35 4 0 17 -27 29 -35
16z"/>
<path d="M447 1498 c-2 -7 -1 -22 3 -32 6 -18 7 -18 23 5 9 13 17 27 17 31 0
13 -38 9 -43 -4z"/>
<path d="M692 1468 c-15 -15 -12 -20 130 -255 79 -130 131 -226 133 -247 4
-31 -13 -64 -136 -270 -107 -178 -139 -239 -131 -249 15 -17 261 -16 295 2 14
7 79 106 163 244 111 185 139 239 138 267 0 25 -19 66 -67 144 -37 59 -67 112
-67 117 0 5 -4 9 -10 9 -5 0 -10 4 -10 9 0 19 -124 213 -144 224 -27 15 -280
19 -294 5z"/>
<path d="M1340 1450 c-29 -7 -36 -33 -20 -74 10 -27 12 -28 64 -23 66 6 76 12
76 40 0 56 -10 68 -54 66 -22 -2 -52 -5 -66 -9z"/>
<path d="M1580 1440 c-19 -11 -31 -19 -25 -20 5 0 4 -5 -3 -12 -15 -15 -16
-54 -2 -63 10 -6 124 46 145 67 13 13 -30 48 -59 48 -11 -1 -37 -9 -56 -20z"/>
<path d="M1740 1420 c-12 -7 -11 -15 5 -49 23 -51 43 -70 55 -51 6 10 -20 74
-44 107 -1 1 -8 -2 -16 -7z"/>
<path d="M420 1386 c0 -14 -11 -33 -25 -44 -29 -23 -32 -32 -10 -32 9 0 26 -7
39 -15 15 -10 35 -14 56 -10 45 8 48 11 42 42 -6 36 -20 53 -44 53 -10 0 -21
7 -24 15 -10 24 -34 18 -34 -9z"/>
<path d="M1694 1401 c-5 -5 -39 -24 -76 -43 l-67 -34 24 -44 c14 -25 17 -35 7
-22 -9 12 -25 33 -34 45 -15 19 -17 20 -23 5 -7 -17 21 -87 39 -100 17 -12 26
-9 26 9 0 15 1 15 18 0 10 -10 26 -17 36 -17 9 0 20 -8 23 -17 9 -25 25 -34
40 -22 10 9 9 15 -2 33 -8 11 -11 27 -7 33 9 14 23 6 38 -22 17 -30 29 -20 29
25 1 21 4 42 7 46 7 7 -45 119 -60 128 -5 3 -13 1 -18 -3z"/>
<path d="M573 1383 c-5 -10 -9 -25 -8 -33 1 -8 3 -21 3 -27 1 -7 10 -13 20
-13 10 0 23 -5 30 -12 9 -9 12 -8 12 6 0 9 4 15 9 12 13 -8 20 53 7 63 -6 5
-23 12 -38 16 -20 5 -29 2 -35 -12z"/>
<path d="M1235 1342 c-48 -9 -59 -65 -20 -102 l25 -24 28 21 c15 11 28 31 30
44 4 30 -35 67 -63 61z"/>
<path d="M1370 1330 c-8 -5 -1 -11 21 -19 50 -17 85 -49 71 -63 -9 -9 -21 -6
-51 10 -50 28 -81 29 -81 2 0 -11 6 -20 13 -21 33 -2 100 -27 80 -30 -7 -1
-17 -3 -23 -4 -5 -1 -18 -3 -27 -5 -13 -1 -9 -5 12 -15 33 -14 50 -11 83 18
25 23 32 87 8 87 -7 0 -19 6 -25 14 -17 20 -65 36 -81 26z"/>
<path d="M615 1280 c-33 -20 -60 -41 -60 -46 0 -16 69 -124 80 -124 5 1 28 13
49 28 54 37 63 73 31 129 -14 23 -29 44 -33 46 -4 2 -34 -13 -67 -33z"/>
<path d="M116 1266 c-22 -7 -40 -19 -42 -28 -1 -9 -9 -48 -18 -86 -9 -39 -16
-75 -16 -81 0 -16 63 -71 82 -71 9 0 53 12 96 26 77 25 81 28 87 61 3 19 9 41
11 48 7 17 -124 145 -146 144 -8 -1 -33 -7 -54 -13z"/>
<path d="M425 1245 c-73 -15 -87 -26 -87 -68 0 -54 12 -97 27 -97 8 0 23 13
34 29 27 38 67 45 104 19 21 -15 31 -17 42 -8 26 22 -23 138 -58 136 -6 0 -34
-5 -62 -11z"/>
<path d="M1268 1224 c-31 -16 -33 -22 -16 -59 13 -30 34 -32 67 -6 24 18 24
18 5 50 -21 35 -20 35 -56 15z"/>
<path d="M1503 1193 c-7 -3 -9 -13 -4 -31 11 -39 4 -74 -19 -94 -26 -21 -19
-24 62 -26 59 -1 71 2 100 25 18 15 35 29 38 31 3 2 -3 8 -13 13 -9 6 -17 16
-17 23 0 7 -9 22 -20 34 -17 18 -24 20 -50 10 -24 -8 -35 -7 -48 5 -9 8 -22
12 -29 10z"/>
<path d="M1796 1184 c-32 -31 -14 -64 37 -69 25 -3 42 32 26 51 -23 28 -47 35
-63 18z"/>
<path d="M735 1143 c-11 -21 -19 -42 -20 -48 0 -5 24 -10 53 -10 28 0 52 1 52
2 0 7 -56 93 -61 93 -3 0 -14 -17 -24 -37z"/>
<path d="M1358 1152 c-25 -2 -41 -10 -51 -26 -14 -21 -13 -27 14 -75 27 -47
33 -52 61 -49 26 2 37 12 60 51 26 45 27 49 12 72 -9 14 -19 25 -23 26 -3 0
-13 1 -21 2 -8 1 -32 1 -52 -1z"/>
<path d="M1712 1106 c-9 -21 -8 -25 9 -29 10 -3 19 -1 19 4 0 4 8 5 18 2 16
-7 16 -5 1 17 -22 33 -34 35 -47 6z"/>
<path d="M457 1090 c-3 -11 1 -21 10 -24 26 -10 33 -7 33 17 0 29 -36 34 -43
7z"/>
<path d="M585 1076 c-16 -12 -15 -13 11 -19 16 -3 49 -20 73 -37 37 -27 41
-34 30 -46 -12 -11 -23 -9 -73 16 -32 17 -65 30 -72 30 -24 0 -30 -54 -6 -55
4 -1 31 -7 61 -14 58 -15 54 -31 -9 -31 -30 0 -32 -2 -20 -14 16 -16 30 -19
73 -17 46 2 91 72 79 123 -2 10 -9 15 -14 12 -5 -3 -22 5 -36 19 -38 36 -76
49 -97 33z"/>
<path d="M1765 1057 c-42 -27 -50 -37 -53 -67 -3 -33 0 -36 56 -66 57 -30 61
-31 86 -15 24 14 26 21 26 82 0 60 -3 68 -25 83 -32 21 -32 21 -90 -17z"/>
<path d="M788 1063 c-23 -6 -34 -49 -18 -68 18 -21 52 -19 73 5 9 11 17 22 17
25 0 7 -43 45 -49 44 -3 -1 -14 -3 -23 -6z"/>
<path d="M374 1049 c-29 -15 -54 -62 -51 -95 2 -16 24 -59 49 -96 26 -36 49
-80 53 -97 10 -45 22 -38 29 18 4 27 18 75 31 106 14 30 25 65 25 76 0 36 -28
76 -61 88 -38 13 -47 13 -75 0z"/>
<path d="M1583 1018 c-21 -10 -25 -17 -26 -50 -1 -26 27 -68 44 -68 16 0 17 3
7 25 -6 14 -17 24 -24 21 -7 -3 -14 4 -17 15 -7 24 24 59 52 59 23 0 46 -25
32 -34 -7 -5 -6 -15 1 -32 14 -31 33 -16 24 20 -12 50 -47 66 -93 44z"/>
<path d="M270 1005 c0 -15 -2 -16 -17 -4 -13 11 -17 11 -20 2 -3 -7 -11 -13
-19 -13 -18 0 -18 -14 1 -30 8 -7 15 -19 15 -26 0 -8 5 -14 10 -14 6 0 10 5
10 10 0 6 5 10 10 10 6 0 9 -5 8 -11 -2 -6 2 -14 9 -16 15 -5 26 33 21 73 -3
30 -28 47 -28 19z"/>
<path d="M36 1001 c-5 -8 3 -153 9 -159 2 -3 26 10 52 27 63 41 88 60 82 64
-18 16 -140 73 -143 68z"/>
<path d="M835 969 c-11 -34 31 -53 54 -25 9 11 8 18 -4 30 -23 22 -42 20 -50
-5z"/>
<path d="M727 908 c-51 -81 -51 -84 -9 -113 49 -34 65 -32 93 13 47 73 53 90
39 107 -15 18 -63 45 -80 45 -5 0 -25 -24 -43 -52z"/>
<path d="M1455 951 c-11 -4 -38 -6 -60 -4 -26 3 -35 1 -27 -5 10 -7 8 -16 -12
-39 -33 -39 -32 -52 5 -82 36 -28 72 -30 99 -6 11 10 26 15 36 11 21 -8 37 13
23 30 -6 8 -5 21 3 39 11 24 10 29 -12 46 -28 21 -27 21 -55 10z"/>
<path d="M1646 893 c-4 -12 -7 -25 -7 -28 0 -2 -7 -28 -15 -57 -8 -29 -17 -69
-20 -89 l-5 -35 107 -28 c59 -15 111 -23 115 -19 10 10 61 214 55 220 -2 2
-54 17 -114 32 l-111 28 -5 -24z"/>
<path d="M168 890 c-14 -9 -15 -16 -6 -40 11 -33 15 -34 52 -20 23 8 24 12 15
40 -11 31 -31 37 -61 20z"/>
<path d="M510 850 c-12 -17 -22 -42 -23 -57 -2 -23 5 -31 41 -49 53 -27 79
-21 99 22 21 42 6 67 -54 94 l-42 19 -21 -29z"/>
<path d="M1552 835 c-10 -21 -9 -26 10 -36 18 -10 24 -8 40 12 19 22 19 23 -4
35 -31 18 -33 17 -46 -11z"/>
<path d="M247 830 c-30 -24 -51 -81 -43 -116 9 -34 32 -30 45 7 15 43 14 47
-10 51 l-21 3 22 28 c42 53 130 23 130 -45 0 -25 -3 -27 -18 -19 -16 9 -21 5
-30 -27 -13 -42 -3 -59 26 -43 18 10 32 45 37 96 2 19 -24 63 -42 70 -42 16
-70 15 -96 -5z"/>
<path d="M74 824 c-3 -10 -10 -31 -15 -45 -7 -18 -6 -34 2 -52 10 -22 17 -26
38 -21 30 7 52 30 45 49 -3 7 2 15 11 19 22 8 9 26 -20 26 -13 0 -31 10 -39
22 -15 21 -16 21 -22 2z"/>
<path d="M1291 794 c-7 -19 -19 -38 -27 -41 -21 -8 -17 -17 15 -36 37 -22 41
-21 41 3 0 10 6 23 13 27 6 4 18 16 26 25 12 16 10 20 -10 38 -34 27 -43 25
-58 -16z"/>
<path d="M1415 755 c-32 -31 -33 -49 -2 -41 12 4 35 9 50 13 19 4 26 10 23 20
-4 8 -6 19 -6 24 0 18 -42 8 -65 -16z"/>
<path d="M1490 772 c0 -5 7 -24 16 -42 l17 -33 13 24 c21 39 16 12 -7 -32 -16
-32 -18 -44 -8 -55 16 -20 24 -18 37 11 21 46 15 81 -19 109 -31 26 -49 33
-49 18z"/>
<path d="M728 759 c-24 -14 -23 -45 3 -52 24 -6 36 15 23 43 -7 15 -13 17 -26
9z"/>
<path d="M655 700 c10 -11 22 -17 26 -14 5 3 7 -5 5 -18 -3 -13 -5 -26 -5 -29
-1 -3 -14 -6 -31 -7 -34 -1 -40 20 -15 48 13 15 14 18 2 23 -23 9 -40 -9 -39
-42 1 -36 10 -54 23 -46 5 4 9 1 9 -4 0 -18 46 -12 63 7 24 26 21 68 -5 86
-34 24 -56 21 -33 -4z"/>
<path d="M1203 664 c-18 -31 -33 -60 -33 -65 0 -12 76 -59 95 -59 8 0 15 6 16
13 1 6 4 1 8 -12 6 -22 8 -20 37 25 50 79 50 78 27 72 -16 -4 -19 -1 -16 12 3
13 -8 25 -42 44 -26 14 -50 26 -54 26 -3 0 -21 -25 -38 -56z"/>
<path d="M411 689 c-58 -35 -63 -112 -9 -152 16 -12 26 -27 24 -34 -13 -33 83
13 108 52 57 87 -36 187 -123 134z"/>
<path d="M1403 700 c-24 -10 -29 -26 -14 -48 6 -11 10 -11 18 0 10 13 27 59
21 57 -2 0 -13 -4 -25 -9z"/>
<path d="M98 668 c-12 -10 -14 -19 -7 -35 16 -43 78 -17 64 27 -7 23 -33 26
-57 8z"/>
<path d="M191 623 c-69 -44 -86 -68 -57 -79 8 -3 39 -48 68 -100 29 -51 59
-94 66 -94 16 0 123 66 139 87 9 12 1 29 -40 88 -51 72 -52 74 -68 53 -15 -19
-16 -18 -12 29 6 69 -9 72 -96 16z"/>
<path d="M1415 647 c-13 -18 -12 -22 5 -34 27 -19 75 -24 95 -9 15 11 11 15
-34 38 -52 25 -52 25 -66 5z"/>
<path d="M1688 613 c-10 -21 -21 -28 -40 -26 -24 1 -29 -4 -56 -59 -2 -5 1 -8
6 -8 5 0 12 9 15 21 3 12 10 18 17 14 8 -5 7 -11 -2 -23 -11 -13 -11 -14 0 -8
9 5 15 1 19 -12 9 -35 83 -52 83 -20 0 6 7 8 15 4 11 -4 23 10 41 45 14 28 24
52 22 54 -9 8 -89 45 -97 45 -5 0 -16 -12 -23 -27z"/>
<path d="M562 576 c-11 -18 -17 -38 -13 -43 9 -14 54 -43 66 -43 11 0 45 55
45 74 0 10 -59 46 -74 46 -2 0 -13 -15 -24 -34z"/>
<path d="M1146 571 c-3 -5 0 -14 8 -20 10 -9 15 -8 19 3 9 22 -15 37 -27 17z"/>
<path d="M1424 571 c-47 -12 -54 -19 -54 -56 0 -40 15 -53 38 -32 23 21 43 23
69 9 28 -15 35 -4 23 38 -9 30 -26 51 -40 49 -3 -1 -19 -4 -36 -8z"/>
<path d="M1160 525 c-9 -11 -16 -12 -26 -4 -10 8 -17 3 -29 -22 -10 -19 -13
-34 -7 -38 5 -3 9 -21 8 -39 -1 -37 11 -53 20 -28 10 26 25 18 18 -9 -7 -27
10 -35 20 -9 3 8 10 13 15 9 5 -3 12 -1 15 4 3 5 14 7 24 4 12 -3 22 4 30 22
15 33 15 35 -4 35 -10 0 -12 4 -7 13 32 49 -40 107 -77 62z"/>
<path d="M461 469 c-29 -32 -30 -34 -13 -50 31 -30 56 -31 82 -4 l24 26 -31
31 -31 31 -31 -34z"/>
<path d="M568 468 c-9 -23 3 -38 28 -38 19 0 24 5 24 25 0 20 -5 25 -24 25
-13 0 -26 -6 -28 -12z"/>
<path d="M1285 444 c-14 -22 -15 -28 -3 -39 29 -28 52 -26 70 5 17 30 17 30
-12 45 -37 19 -35 20 -55 -11z"/>
<path d="M1465 460 c-19 -7 -19 -7 2 -14 26 -8 88 -128 79 -152 -9 -24 -36
-16 -54 17 -40 73 -73 110 -94 107 -12 -2 -25 -10 -31 -18 -7 -13 4 -29 49
-73 51 -50 56 -57 35 -57 -13 0 -39 9 -57 21 -44 27 -44 7 0 -37 27 -27 42
-34 72 -34 48 0 98 29 119 70 14 27 13 34 -7 31 -4 0 -10 14 -13 33 -14 70
-61 120 -100 106z"/>
<path d="M1600 409 c37 -93 27 -94 106 4 17 21 11 36 -14 35 -9 -1 -39 3 -65
7 l-48 7 21 -53z"/>
<path d="M553 410 c-55 -22 -74 -111 -32 -156 33 -35 81 -41 123 -14 64 39 58
132 -9 164 -37 18 -50 19 -82 6z"/>
<path d="M1022 398 c-14 -14 -16 -64 -3 -72 4 -3 11 -20 15 -38 l7 -33 24 44
c29 49 33 96 9 105 -24 9 -39 7 -52 -6z"/>
<path d="M721 371 c-14 -9 -22 -47 -14 -67 5 -13 8 -12 25 3 18 16 21 16 48 1
25 -14 29 -14 34 -1 4 8 0 27 -6 41 -10 20 -21 27 -44 28 -18 1 -37 -2 -43 -5z"/>
<path d="M961 371 c-15 -10 -8 -41 9 -41 15 0 25 29 14 40 -5 5 -15 5 -23 1z"/>
<path d="M392 349 c-13 -5 -28 -7 -32 -4 -5 3 -18 -7 -29 -21 -17 -21 -19 -30
-9 -41 22 -27 44 -32 72 -18 14 8 29 13 33 12 11 -4 11 62 -1 72 -6 5 -21 5
-34 0z"/>
<path d="M865 349 c-17 -6 -16 -8 8 -8 16 -1 26 -5 22 -11 -4 -6 -11 -7 -17
-4 -7 5 -9 1 -5 -9 4 -10 1 -17 -6 -17 -7 0 -13 -14 -14 -30 -2 -24 3 -33 22
-42 14 -6 25 -15 25 -20 0 -4 24 -8 53 -8 l53 0 -1 53 -1 52 -52 3 c-52 3 -61
9 -41 29 14 14 -19 23 -46 12z"/>
<path d="M1193 327 c-51 -18 -97 -36 -102 -42 -10 -11 49 -199 68 -218 7 -7
34 -3 87 13 72 23 77 26 100 71 l24 48 -21 68 c-22 72 -34 93 -53 92 -6 0 -52
-15 -103 -32z"/>
<path d="M751 287 c-8 -8 -8 -14 0 -24 17 -19 39 -16 39 6 0 23 -23 34 -39 18z"/>
<path d="M441 258 c-23 -37 -21 -57 6 -75 25 -17 26 -16 50 11 29 34 27 41
-13 66 -29 19 -30 19 -43 -2z"/>
<path d="M672 215 c-13 -26 -22 -65 -22 -90 0 -40 3 -45 28 -51 15 -3 44 -12
66 -19 39 -12 96 -2 96 17 0 4 6 8 14 8 9 0 12 7 9 19 -2 10 2 24 9 32 12 11
11 18 -6 51 -20 37 -31 44 -76 53 -12 2 -31 7 -43 10 -12 4 -29 8 -37 11 -11
3 -23 -11 -38 -41z"/>
<path d="M536 186 c-21 -44 -21 -43 14 -61 40 -21 44 -20 63 19 l16 35 -35 20
c-19 12 -37 21 -38 21 -2 0 -11 -15 -20 -34z"/>
<path d="M1394 201 c4 -6 2 -11 -3 -11 -18 0 -8 -24 13 -33 26 -10 44 8 30 31
-6 9 -19 19 -29 20 -11 3 -15 0 -11 -7z"/>
<path d="M946 180 c-33 -4 -41 -10 -47 -32 -9 -33 -2 -88 14 -106 15 -18 176
-10 189 10 10 14 6 114 -5 125 -9 8 -97 10 -151 3z"/>
</g>
</svg>
